<svg width="500" height="500" viewBox="0 0 500 500" fill="none" xmlns="http://www.w3.org/2000/svg">
<rect width="500" height="500" fill="#101014"/>
<g opacity="0.85">
<path d="M173.981 172.061H317.921V293.274H173.981V172.061Z" fill="url(#paint0_linear_42_128)"/>
<path d="M275.497 213.666C275.497 190.688 294.124 172.061 317.102 172.061H327.012C360.485 172.061 387.619 199.195 387.619 232.668C387.619 266.14 360.485 293.274 327.012 293.274H317.102C294.124 293.274 275.497 274.647 275.497 251.669V213.666Z" fill="url(#paint1_linear_42_128)"/>
<path d="M223.981 251.669C223.981 274.647 205.354 293.274 182.376 293.274H172.466C138.994 293.274 111.859 266.14 111.859 232.668C111.859 199.195 138.994 172.061 172.466 172.061H182.376C205.354 172.061 223.981 190.688 223.981 213.666V251.669Z" fill="url(#paint2_linear_42_128)"/>
<path d="M166.405 191.758C166.405 149.918 200.323 116 242.163 116H255.8C297.64 116 331.558 149.918 331.558 191.758V229.637H166.405V191.758Z" fill="url(#paint3_linear_42_128)"/>
</g>
<mask id="mask0_42_128" style="mask-type:alpha" maskUnits="userSpaceOnUse" x="111" y="116" width="277" height="178">
<g opacity="0.85">
<path d="M173.981 172.061H317.921V293.274H173.981V172.061Z" fill="url(#paint4_linear_42_128)"/>
<path d="M275.497 213.666C275.497 190.688 294.124 172.061 317.102 172.061H327.012C360.485 172.061 387.619 199.195 387.619 232.668C387.619 266.14 360.485 293.274 327.012 293.274H317.102C294.124 293.274 275.497 274.647 275.497 251.669V213.666Z" fill="url(#paint5_linear_42_128)"/>
<path d="M223.981 251.669C223.981 274.647 205.354 293.274 182.376 293.274H172.466C138.994 293.274 111.859 266.14 111.859 232.668C111.859 199.195 138.994 172.061 172.466 172.061H182.376C205.354 172.061 223.981 190.688 223.981 213.666V251.669Z" fill="url(#paint6_linear_42_128)"/>
<path d="M166.405 191.758C166.405 149.918 200.323 116 242.163 116H255.8C297.64 116 331.558 149.918 331.558 191.758V229.637H166.405V191.758Z" fill="url(#paint7_linear_42_128)"/>
</g>
</mask>
<g mask="url(#mask0_42_128)">
<g opacity="0.85" filter="url(#filter0_f_42_128)">
<path d="M163.947 240.646H326.405V317.882H163.947V240.646Z" fill="#9D9D9D"/>
<path d="M278.523 267.157C278.523 252.515 299.547 240.646 325.48 240.646H336.666C374.444 240.646 405.069 257.936 405.069 279.264C405.069 300.592 374.444 317.882 336.666 317.882H325.48C299.547 317.882 278.523 306.013 278.523 291.372V267.157Z" fill="#9D9D9D"/>
<path d="M220.38 291.372C220.38 306.013 199.357 317.882 173.423 317.882H162.237C124.459 317.882 93.834 300.592 93.834 279.264C93.834 257.936 124.459 240.646 162.237 240.646H173.423C199.357 240.646 220.38 252.515 220.38 267.157V291.372Z" fill="#9D9D9D"/>
<path d="M155.397 253.197C155.397 226.537 193.679 204.924 240.901 204.924H256.292C303.515 204.924 341.796 226.537 341.796 253.197V277.333H155.397V253.197Z" fill="#9D9D9D"/>
</g>
</g>
<g filter="url(#filter1_d_42_128)">
<path d="M289.694 294.453H256.174L286.317 247.042C286.94 246.038 286.377 244.58 285.358 244.58H227.005C226.579 244.58 226.168 244.864 225.955 245.337L186.531 330.101C186.059 331.105 186.637 332.374 187.581 332.374H214.117L200.514 400.108C200.225 401.586 201.656 402.628 202.538 401.567L290.531 297.048C291.323 296.12 290.79 294.453 289.694 294.453Z" fill="url(#paint8_linear_42_128)" fill-opacity="0.9" shape-rendering="crispEdges"/>
</g>
<defs>
<filter id="filter0_f_42_128" x="57.834" y="168.924" width="383.235" height="184.958" filterUnits="userSpaceOnUse" color-interpolation-filters="sRGB">
<feFlood flood-opacity="0" result="BackgroundImageFix"/>
<feBlend mode="normal" in="SourceGraphic" in2="BackgroundImageFix" result="shape"/>
<feGaussianBlur stdDeviation="18" result="effect1_foregroundBlur_42_128"/>
</filter>
<filter id="filter1_d_42_128" x="127.163" y="185.38" width="222.946" height="275.82" filterUnits="userSpaceOnUse" color-interpolation-filters="sRGB">
<feFlood flood-opacity="0" result="BackgroundImageFix"/>
<feColorMatrix in="SourceAlpha" type="matrix" values="0 0 0 0 0 0 0 0 0 0 0 0 0 0 0 0 0 0 127 0" result="hardAlpha"/>
<feOffset/>
<feGaussianBlur stdDeviation="29.6"/>
<feComposite in2="hardAlpha" operator="out"/>
<feColorMatrix type="matrix" values="0 0 0 0 1 0 0 0 0 0.880553 0 0 0 0 0.0655048 0 0 0 1 0"/>
<feBlend mode="normal" in2="BackgroundImageFix" result="effect1_dropShadow_42_128"/>
<feBlend mode="normal" in="SourceGraphic" in2="effect1_dropShadow_42_128" result="shape"/>
</filter>
<linearGradient id="paint0_linear_42_128" x1="249.739" y1="116" x2="249.739" y2="293.274" gradientUnits="userSpaceOnUse">
<stop stop-color="white"/>
<stop offset="1" stop-color="#EFEFEF"/>
</linearGradient>
<linearGradient id="paint1_linear_42_128" x1="249.739" y1="116" x2="249.739" y2="293.274" gradientUnits="userSpaceOnUse">
<stop stop-color="white"/>
<stop offset="1" stop-color="#EFEFEF"/>
</linearGradient>
<linearGradient id="paint2_linear_42_128" x1="249.739" y1="116" x2="249.739" y2="293.274" gradientUnits="userSpaceOnUse">
<stop stop-color="white"/>
<stop offset="1" stop-color="#EFEFEF"/>
</linearGradient>
<linearGradient id="paint3_linear_42_128" x1="249.739" y1="116" x2="249.739" y2="293.274" gradientUnits="userSpaceOnUse">
<stop stop-color="white"/>
<stop offset="1" stop-color="#EFEFEF"/>
</linearGradient>
<linearGradient id="paint4_linear_42_128" x1="249.739" y1="116" x2="249.739" y2="293.274" gradientUnits="userSpaceOnUse">
<stop stop-color="white"/>
<stop offset="1" stop-color="#EFEFEF"/>
</linearGradient>
<linearGradient id="paint5_linear_42_128" x1="249.739" y1="116" x2="249.739" y2="293.274" gradientUnits="userSpaceOnUse">
<stop stop-color="white"/>
<stop offset="1" stop-color="#EFEFEF"/>
</linearGradient>
<linearGradient id="paint6_linear_42_128" x1="249.739" y1="116" x2="249.739" y2="293.274" gradientUnits="userSpaceOnUse">
<stop stop-color="white"/>
<stop offset="1" stop-color="#EFEFEF"/>
</linearGradient>
<linearGradient id="paint7_linear_42_128" x1="249.739" y1="116" x2="249.739" y2="293.274" gradientUnits="userSpaceOnUse">
<stop stop-color="white"/>
<stop offset="1" stop-color="#EFEFEF"/>
</linearGradient>
<linearGradient id="paint8_linear_42_128" x1="238.636" y1="244.58" x2="238.636" y2="402" gradientUnits="userSpaceOnUse">
<stop stop-color="#FFDE00"/>
<stop offset="1" stop-color="#FF9100"/>
</linearGradient>
</defs>
</svg>
