<svg width="146" height="150" viewBox="0 0 146 150" fill="none" xmlns="http://www.w3.org/2000/svg">
<path d="M86 150C76.7174 150 67.815 146.075 61.2513 139.089C54.6875 132.102 51 122.627 51 112.746C51 87.9104 86 46 86 46C86 46 121 87.9104 121 112.746C121 122.627 117.313 132.102 110.749 139.089C104.185 146.075 95.2826 150 86 150Z" fill="url(#paint0_linear_42_157)"/>
<path d="M23 81C16.9 81 11.0499 78.396 6.73654 73.7607C2.42321 69.1255 0 62.8388 0 56.2836C0 39.806 23 12 23 12C23 12 46 39.806 46 56.2836C46 62.8388 43.5768 69.1255 39.2635 73.7607C34.9501 78.396 29.1 81 23 81Z" fill="url(#paint1_linear_42_157)"/>
<path d="M131 46C127.022 46 123.206 44.264 120.393 41.1738C117.58 38.0837 116 33.8925 116 29.5224C116 18.5373 131 0 131 0C131 0 146 18.5373 146 29.5224C146 33.8925 144.42 38.0837 141.607 41.1738C138.794 44.264 134.978 46 131 46Z" fill="url(#paint2_linear_42_157)"/>
<defs>
<linearGradient id="paint0_linear_42_157" x1="86" y1="46" x2="86" y2="150" gradientUnits="userSpaceOnUse">
<stop stop-color="#FBFDFC"/>
<stop offset="1" stop-color="#C4D2EC"/>
</linearGradient>
<linearGradient id="paint1_linear_42_157" x1="23" y1="12" x2="23" y2="81" gradientUnits="userSpaceOnUse">
<stop stop-color="#FBFDFC"/>
<stop offset="1" stop-color="#C4D2EC"/>
</linearGradient>
<linearGradient id="paint2_linear_42_157" x1="131" y1="0" x2="131" y2="46" gradientUnits="userSpaceOnUse">
<stop stop-color="#FBFDFC"/>
<stop offset="1" stop-color="#C4D2EC"/>
</linearGradient>
</defs>
</svg>
