<svg width="144" height="160" viewBox="0 0 144 160" fill="none" xmlns="http://www.w3.org/2000/svg">
<path d="M140.048 111L128.745 104.453C130.791 102.341 133.136 100.544 135.707 99.12C137.387 98.1701 138.625 96.5932 139.151 94.7325C139.677 92.8718 139.449 90.878 138.516 89.1852C137.583 87.4924 136.021 86.2376 134.17 85.6942C132.319 85.1507 130.328 85.3624 128.632 86.2833C123.725 89.0066 119.376 92.6373 115.817 96.9833L86.525 80L115.81 63.0467C119.369 67.3933 123.718 71.024 128.626 73.7467C129.467 74.2222 130.394 74.526 131.353 74.6405C132.311 74.755 133.284 74.678 134.213 74.4139C135.142 74.1497 136.009 73.7037 136.766 73.1015C137.522 72.4993 138.152 71.753 138.619 70.9055C139.086 70.0579 139.381 69.1261 139.487 68.1636C139.593 67.2012 139.508 66.2272 139.237 65.2979C138.965 64.3686 138.513 63.5024 137.906 62.7493C137.299 61.9962 136.549 61.3711 135.7 60.91C133.13 59.4856 130.785 57.6884 128.739 55.5767L140.042 49.03C140.906 48.5665 141.669 47.9335 142.285 47.1685C142.9 46.4035 143.357 45.5222 143.626 44.577C143.895 43.6318 143.972 42.6419 143.852 41.6663C143.732 40.6906 143.418 39.7491 142.928 38.8977C142.438 38.0462 141.782 37.3023 141 36.71C140.217 36.1178 139.324 35.6893 138.373 35.4501C137.422 35.2108 136.433 35.1658 135.464 35.3175C134.496 35.4692 133.567 35.8147 132.735 36.3333L121.432 42.8767C120.626 40.0432 120.243 37.1059 120.295 34.16C120.316 33.1953 120.147 32.2358 119.797 31.3367C119.448 30.4375 118.925 29.6164 118.259 28.9202C117.592 28.2241 116.795 27.6667 115.914 27.28C115.032 26.8933 114.083 26.6849 113.12 26.6667H112.984C111.068 26.6663 109.228 27.4202 107.86 28.766C106.492 30.1119 105.706 31.9422 105.67 33.8633C105.567 39.4829 106.526 45.0713 108.496 50.3333L79.2113 67.2967V33.3933C84.7445 32.4764 90.0542 30.5163 94.8594 27.6167C96.5209 26.6128 97.7167 24.9883 98.1837 23.1004C98.6506 21.2125 98.3505 19.216 97.3494 17.55C96.3482 15.884 94.728 14.685 92.8452 14.2168C90.9623 13.7486 88.9711 14.0495 87.3096 15.0533C84.7907 16.5711 82.0617 17.7067 79.2113 18.4233V7.33333C79.2113 5.38841 78.4407 3.52315 77.0691 2.14788C75.6975 0.772617 73.8373 0 71.8975 0C69.9578 0 68.0975 0.772617 66.7259 2.14788C65.3543 3.52315 64.5838 5.38841 64.5838 7.33333V18.4233C61.7333 17.7067 59.0043 16.5711 56.4855 15.0533C54.8239 14.0495 52.8327 13.7486 50.9499 14.2168C49.0671 14.685 47.4469 15.884 46.4457 17.55C45.4445 19.216 45.1444 21.2125 45.6114 23.1004C46.0784 24.9883 47.2742 26.6128 48.9357 27.6167C53.7409 30.5163 59.0506 32.4764 64.5838 33.3933V67.2967L35.2989 50.3333C37.272 45.0697 38.2331 39.4789 38.1313 33.8567C38.0956 31.9355 37.3093 30.1052 35.9416 28.7593C34.5738 27.4135 32.7339 26.6597 30.8176 26.66H30.6746C29.7141 26.6778 28.7665 26.8851 27.886 27.2702C27.0054 27.6552 26.2091 28.2105 25.5426 28.9042C24.8761 29.5978 24.3524 30.4164 24.0014 31.3131C23.6505 32.2097 23.4791 33.1669 23.4972 34.13C23.551 37.0801 23.169 40.022 22.3636 42.86L11.0605 36.3333C10.2282 35.8355 9.30542 35.5085 8.34593 35.3714C7.38644 35.2342 6.40934 35.2896 5.4714 35.5344C4.53346 35.7792 3.65341 36.2085 2.88237 36.7973C2.11134 37.3861 1.46471 38.1227 0.980068 38.9642C0.495425 39.8058 0.182433 40.7356 0.0592827 41.6995C-0.0638673 42.6634 0.00528057 43.6422 0.262708 44.5791C0.520136 45.516 0.96071 46.3922 1.55882 47.1569C2.15693 47.9215 2.90066 48.5594 3.74677 49.0333L15.0498 55.58C13.0039 57.6917 10.6581 59.4889 8.08847 60.9133C7.23925 61.3744 6.48951 61.9995 5.88252 62.7526C5.27552 63.5058 4.82328 64.372 4.5519 65.3012C4.28053 66.2305 4.19538 67.2045 4.30138 68.1669C4.40739 69.1294 4.70244 70.0613 5.16951 70.9088C5.63658 71.7563 6.26643 72.5027 7.0227 73.1048C7.77896 73.707 8.64668 74.153 9.57577 74.4172C10.5049 74.6813 11.4769 74.7584 12.4359 74.6439C13.3948 74.5294 14.3216 74.2256 15.1628 73.75C20.0702 71.0267 24.4188 67.396 27.9785 63.05L57.27 80L27.9852 96.9533C24.4254 92.6073 20.0769 88.9766 15.1695 86.2533C14.3283 85.7778 13.4014 85.474 12.4425 85.3595C11.4836 85.245 10.5115 85.322 9.58241 85.5862C8.65333 85.8503 7.78561 86.2963 7.02935 86.8985C6.27308 87.5007 5.64323 88.247 5.17616 89.0945C4.70909 89.9421 4.41404 90.8739 4.30803 91.8364C4.20203 92.7988 4.28717 93.7728 4.55855 94.7021C4.82993 95.6314 5.28217 96.4976 5.88916 97.2507C6.49616 98.0038 7.2459 98.6289 8.09512 99.09C10.6648 100.514 13.0105 102.312 15.0565 104.423L3.74677 111C2.90066 111.474 2.15693 112.112 1.55882 112.876C0.96071 113.641 0.520136 114.517 0.262708 115.454C0.00528057 116.391 -0.0638673 117.37 0.0592827 118.334C0.182433 119.298 0.495425 120.228 0.980068 121.069C1.46471 121.911 2.11134 122.647 2.88237 123.236C3.65341 123.825 4.53346 124.254 5.4714 124.499C6.40934 124.744 7.38644 124.799 8.34593 124.662C9.30542 124.525 10.2282 124.198 11.0605 123.7L22.3636 117.157C23.1688 119.99 23.5519 122.927 23.5005 125.873C23.4667 127.816 24.2032 129.693 25.5483 131.092C26.8934 132.49 28.7371 133.297 30.6746 133.333H30.8109C32.7273 133.334 34.5672 132.58 35.9349 131.234C37.3027 129.888 38.089 128.058 38.1247 126.137C38.2278 120.517 37.269 114.929 35.2989 109.667L64.5838 92.7033V126.607C59.0506 127.524 53.7409 129.484 48.9357 132.383C47.2742 133.387 46.0784 135.012 45.6114 136.9C45.1444 138.787 45.4445 140.784 46.4457 142.45C47.4469 144.116 49.0671 145.315 50.9499 145.783C52.8327 146.251 54.8239 145.951 56.4855 144.947C59.0043 143.429 61.7333 142.293 64.5838 141.577V152.667C64.5838 154.612 65.3543 156.477 66.7259 157.852C68.0975 159.227 69.9578 160 71.8975 160C73.8373 160 75.6975 159.227 77.0691 157.852C78.4407 156.477 79.2113 154.612 79.2113 152.667V141.577C82.0617 142.293 84.7907 143.429 87.3096 144.947C88.9711 145.951 90.9623 146.251 92.8452 145.783C94.728 145.315 96.3482 144.116 97.3494 142.45C98.3505 140.784 98.6506 138.787 98.1837 136.9C97.7167 135.012 96.5209 133.387 94.8594 132.383C90.0542 129.484 84.7445 127.524 79.2113 126.607V92.7033L108.496 109.667C106.523 114.93 105.562 120.521 105.664 126.143C105.699 128.064 106.486 129.895 107.853 131.241C109.221 132.587 111.061 133.34 112.977 133.34H113.12C114.081 133.322 115.029 133.115 115.909 132.73C116.79 132.345 117.586 131.79 118.252 131.096C118.919 130.402 119.443 129.584 119.794 128.687C120.145 127.79 120.316 126.833 120.298 125.87C120.244 122.92 120.626 119.978 121.432 117.14L132.735 123.683C133.567 124.219 134.499 124.58 135.474 124.745C136.45 124.909 137.448 124.873 138.41 124.639C139.371 124.406 140.275 123.979 141.067 123.385C141.859 122.791 142.523 122.042 143.018 121.183C143.513 120.325 143.829 119.374 143.948 118.39C144.066 117.405 143.984 116.406 143.706 115.455C143.428 114.503 142.961 113.617 142.332 112.851C141.704 112.086 140.927 111.456 140.048 111Z" fill="url(#paint0_linear_42_161)"/>
<defs>
<linearGradient id="paint0_linear_42_161" x1="72" y1="0" x2="72" y2="160" gradientUnits="userSpaceOnUse">
<stop stop-color="#FBFDFC"/>
<stop offset="1" stop-color="#C4D2EC"/>
</linearGradient>
</defs>
</svg>
